PathFileType	3	(X/Y/Z)	D:\minhoCalibration\240510\subject2_KPNP\preferred\preferred04.trc
DataRate	CameraRate	NumFrames	NumMarkers	Units	OrigDataRate	OrigDataStartFrame	OrigNumFrames
200.0	200.0	36	10	mm	200.0	221	187	
Frame#	Time	Left_Ankle_Outer1			Left_Ankle_Inner1			Left_Knee_Outer1			Left_Knee_Inner1			Left_Wrist1			Right_Wrist1			Right_Knee_Inner1			Right_Knee_Outer1			Right_Ankle_Inner1			Right_Ankle_Outer1			
		X1	Y1	Z1	X2	Y2	Z2	X3	Y3	Z3	X4	Y4	Z4	X5	Y5	Z5	X6	Y6	Z6	X7	Y7	Z7	X8	Y8	Z8	X9	Y9	Z9	X10	Y10	Z10	
221	1.095	-517.71869	86.972153	-802.50189	-534.62524	96.344757	-749.47803	-309.84024	497.8277	-808.84113	-354.48264	485.09094	-722.28351	-349.90448	963.98181	-888.25592	-594.90021	1071.5759	-668.44244	-737.41229	651.89923	-406.47693	-802.4024	733.82269	-416.72183	-805.36487	551.98627	-810.16498	-882.17529	614.0318	-813.52875
222	1.1	-518.31232	87.425499	-802.22144	-534.27875	97.019524	-749.00201	-312.11871	498.67905	-813.6012	-354.18884	486.02966	-725.72925	-352.19678	963.94226	-892.12628	-585.7785	1077.6514	-662.57678	-723.75854	662.20483	-389.69058	-786.47815	746.58319	-395.73267	-805.64996	570.57123	-792.35559	-881.09216	634.29163	-792.45178
223	1.105	-518.94788	87.960106	-801.90674	-533.78326	97.775787	-748.36176	-314.28995	499.78668	-818.39691	-353.73248	487.0965	-729.20197	-355.04156	963.79852	-895.84235	-577.13837	1083.1846	-657.18933	-709.74835	674.21167	-371.38696	-770.53668	759.26312	-377.05576	-806.32147	589.09784	-773.76801	-880.12756	654.69525	-770.61749
224	1.11	-519.47162	88.580818	-801.73901	-533.20862	98.536545	-747.5708	-316.5426	500.92035	-823.24133	-352.9176	488.0174	-732.86963	-358.24792	963.56934	-899.46478	-568.44836	1088.8184	-652.30182	-694.17175	685.20807	-355.49606	-754.12201	773.07269	-356.88321	-807.24719	607.65765	-754.54395	-879.30243	674.95636	-747.94049
225	1.115	-520.17206	88.927307	-801.23462	-531.75372	99.998085	-745.55933	-318.77734	502.30753	-828.16083	-352.0162	488.89075	-736.55865	-361.98013	963.2049	-902.91827	-559.37915	1094.3528	-647.97845	-679.04944	697.46106	-338.82623	-736.78864	786.0528	-340.1441	-808.36646	626.0965	-734.40265	-877.97607	695.02051	-724.74933
226	1.12	-520.76721	89.404465	-800.88403	-531.13287	100.49226	-745.28973	-321.60056	503.10428	-833.00146	-350.55502	489.90231	-740.42865	-366.4227	962.64966	-906.19916	-550.41718	1099.6017	-644.03467	-662.82031	709.75708	-323.53528	-717.29022	800.78674	-323.18762	-809.67902	644.35126	-713.46692	-877.08026	715.08771	-700.50085
227	1.125	-521.46899	89.847046	-800.57971	-530.59137	101.18188	-744.68103	-324.2197	504.45419	-837.96716	-349.3082	490.3956	-744.20129	-371.33386	961.92133	-909.24805	-541.47638	1104.6659	-640.53558	-645.52942	722.89716	-307.55667	-698.07092	815.0379	-305.82098	-811.37787	662.27673	-692.47614	-875.43915	734.92889	-675.66974
228	1.13	-522.33466	89.471352	-799.13995	-530.08252	102.04805	-744.11169	-327.05524	505.57803	-843.08685	-347.94449	490.90915	-748.23889	-376.42838	961.28918	-912.00446	-533.09235	1109.5625	-637.49524	-627.64221	736.11127	-292.91583	-677.03906	829.80402	-290.83966	-813.49237	679.08795	-667.55994	-873.77838	754.92212	-650.03735
229	1.135	-523.13391	89.997711	-798.69495	-529.53705	102.96533	-743.55127	-330.19409	506.46442	-847.71228	-346.51038	491.31409	-752.27643	-381.90884	960.63861	-914.39056	-524.10931	1114.3252	-634.82257	-609.02362	749.685	-279.17505	-655.37445	845.16925	-274.86496	-815.60077	696.48663	-643.20154	-871.71436	774.6618	-623.81146
230	1.14	-523.91638	90.946648	-798.39697	-529.03113	104.3204	-742.57104	-333.38931	506.97427	-852.3916	-345.02213	491.63651	-756.31567	-387.7886	959.90356	-917.04852	-515.96704	1118.7212	-632.64539	-589.72083	763.46716	-265.9993	-632.43134	860.38831	-261.55341	-817.48273	713.58032	-618.13806	-869.31647	794.12286	-596.89893
231	1.145	-524.66443	91.737549	-797.77209	-528.37006	105.53136	-741.66479	-335.85928	508.15369	-857.17108	-343.42398	491.87598	-760.36646	-394.10794	959.25452	-918.75415	-507.3313	1123.2217	-630.38586	-570.13049	777.37329	-254.2291	-608.409	876.30609	-248.97691	-819.026	731.53601	-595.84558	-866.51807	812.90625	-569.59711
232	1.15	-525.29901	92.307045	-796.29388	-527.57721	106.94476	-740.50769	-338.57755	508.87604	-861.69287	-341.84015	492.13318	-764.31378	-401.142	958.24957	-919.9317	-499.02066	1127.4042	-629.04395	-549.78723	791.46722	-243.464	-584.09839	891.63507	-238.11295	-805.09534	746.56104	-558.06525	-863.2218	831.57257	-540.95306
233	1.155	-525.59076	93.483475	-795.2937	-526.52686	108.58715	-739.51971	-341.39737	509.4725	-865.61432	-340.35339	492.41287	-768.19501	-408.58746	956.89886	-920.99829	-491.26181	1131.6075	-627.98944	-529.073	805.6145	-233.81696	-559.09583	906.72064	-229.00562	-791.41364	761.71057	-519.99823	-859.60461	850.05939	-511.25766
234	1.16	-525.82886	95.237419	-794.65216	-525.43488	110.20969	-738.48291	-343.86545	510.3349	-869.32684	-338.82236	493.05716	-772.0849	-415.95432	955.89203	-921.12531	-483.38419	1135.3763	-627.32178	-507.90054	819.68927	-225.50517	-534.1673	921.76202	-220.70297	-777.69775	776.85138	-481.96576	-855.27539	867.60236	-481.84354
235	1.165	-525.67194	96.148949	-793.05286	-524.1449	111.84171	-737.47644	-346.26987	511.52676	-872.48138	-337.58481	494.00729	-775.74994	-423.94254	954.28156	-920.91101	-476.42688	1138.7396	-626.89728	-487.1199	833.80096	-218.23987	-508.61478	936.41528	-215.27762	-764.16705	792.12036	-443.97055	-850.65869	885.38654	-449.16299
236	1.17	-525.19958	97.994255	-792.36902	-522.72644	113.32065	-736.23535	-349.05377	512.71179	-874.80353	-336.67258	495.39334	-779.07324	-431.32001	953.26819	-920.80896	-469.30151	1141.999	-626.52966	-466.13959	847.61847	-212.5388	-483.80231	950.21747	-211.16779	-750.68396	807.41296	-406.00162	-845.19171	902.42926	-415.91354
237	1.175	-524.69739	98.749084	-790.63403	-521.29089	114.84628	-735.05707	-351.94507	514.14185	-876.32373	-336.20102	497.13129	-781.98236	-439.12134	951.92828	-920.01251	-463.10086	1144.9169	-626.74622	-445.38394	861.32874	-207.98572	-459.7504	963.68359	-208.3208	-737.35266	822.76788	-367.75497	-838.93964	919.43024	-379.99948
238	1.18	-523.92615	100.38014	-789.94556	-519.80756	116.74718	-732.42725	-354.64557	515.85938	-877.32416	-336.26636	499.15265	-784.13538	-446.8183	950.51581	-919.00677	-456.85947	1147.7224	-626.89148	-424.94464	874.65375	-204.89212	-435.91772	976.46136	-207.74106	-724.03589	838.09381	-329.62207	-830.87097	936.35461	-344.26419
239	1.185	-523.64569	100.85419	-788.00275	-518.59552	116.8619	-732.78473	-357.70764	517.40167	-877.8194	-336.92886	501.21582	-785.47192	-454.32425	949.21857	-917.19238	-451.69928	1150.1587	-627.5401	-405.54391	887.47443	-202.70496	-413.31842	988.35486	-208.51468	-710.76398	853.39893	-291.51279	-821.39777	952.78821	-306.45441
240	1.19	-523.34937	102.12684	-786.87567	-517.84167	118.59827	-729.70953	-360.19318	519.77203	-877.67157	-338.22232	502.99765	-785.71814	-461.79733	947.80817	-914.98389	-446.56	1152.4225	-628.12128	-386.25089	899.89832	-202.11693	-392.1792	999.48059	-210.70306	-697.31616	868.65924	-253.39543	-809.78967	968.91046	-267.40793
241	1.195	-523.44244	102.84541	-785.32874	-517.39026	118.3584	-729.55469	-363.29398	521.466	-876.94293	-340.01874	504.63693	-785.0943	-468.76593	946.60339	-912.29309	-441.7861	1154.4413	-628.94769	-368.27316	911.61926	-202.35072	-372.55499	1009.5884	-214.06972	-683.81451	883.87695	-215.30824	-795.83313	985.09082	-226.64668
242	1.2	-523.77264	103.29129	-783.33667	-517.27557	118.86373	-727.52203	-366.1788	523.20703	-875.70703	-342.19116	506.09558	-783.72827	-475.2063	945.48578	-909.77997	-437.34448	1156.0652	-630.23083	-351.4776	922.63873	-203.76283	-354.83981	1018.8019	-218.42549	-670.22156	899.23499	-177.08423	-778.98431	1001.2147	-185.09488
243	1.205	-524.41309	103.75525	-781.28052	-517.35999	119.1652	-725.57068	-369.31827	524.48126	-873.74219	-344.79886	507.27463	-781.60449	-480.78406	944.58417	-907.62128	-433.30835	1157.8439	-631.25922	-336.24124	933.07239	-206.54341	-339.2605	1027.1899	-223.38782	-656.81512	914.55426	-138.6292	-759.07788	1017.2336	-142.53253
244	1.21	-525.02637	104.0923	-778.98016	-517.49658	119.2484	-723.64813	-372.08484	525.78552	-871.55878	-347.69031	508.41736	-778.97992	-486.34979	943.39807	-904.32635	-429.66409	1159.2703	-632.56946	-322.81845	942.2785	-209.64175	-326.21786	1034.7281	-228.50528	-643.55566	929.70508	-99.861679	-735.54034	1032.7123	-100.50877
245	1.215	-525.76776	104.27493	-776.2796	-517.79205	119.2291	-720.99768	-374.82404	526.74341	-868.73853	-350.74323	509.1716	-775.78308	-490.60956	942.7218	-901.90741	-426.9397	1160.6312	-633.32794	-311.43478	950.52563	-213.32628	-315.14902	1041.4229	-234.09145	-630.23425	944.94672	-60.873394	-708.79028	1048.0446	-57.545506
246	1.22	-526.49762	104.45096	-773.36414	-518.0415	119.83674	-717.01068	-376.8678	527.69147	-866.11798	-353.91394	509.73822	-772.16486	-494.15305	942.26642	-899.3266	-424.62204	1161.871	-634.30145	-302.62601	957.69098	-217.15001	-307.10751	1047.6396	-238.6723	-616.99371	960.12836	-21.866562	-678.12628	1062.9513	-16.351162
247	1.225	-527.48248	104.09276	-769.41205	-518.3999	119.81279	-713.77728	-379.36783	527.94153	-862.67505	-357.06793	510.21939	-768.2851	-497.10135	941.61383	-897.26416	-422.90369	1163.0553	-635.16199	-296.57501	964.03918	-221.00861	-301.3338	1052.9863	-242.80313	-603.78455	975.21039	17.212927	-643.31006	1077.1733	23.118921
248	1.23	-528.22571	104.49987	-765.69946	-518.5694	119.75672	-710.28546	-381.52927	528.21686	-859.17841	-360.02127	510.57745	-764.28308	-499.3476	941.21936	-895.06921	-421.68204	1164.2386	-635.92151	-293.42032	969.64758	-224.60202	-297.86563	1057.5643	-246.06561	-590.78284	990.23657	56.474213	-604.44092	1090.8928	60.018814
249	1.235	-528.93207	105.3202	-762.2439	-518.67493	119.66283	-706.53046	-382.94205	528.55695	-856.11749	-362.90314	510.93417	-760.14856	-500.98138	940.8429	-893.01849	-420.82718	1165.453	-636.36676	-293.24051	974.49493	-227.82597	-297.01764	1061.2357	-248.17249	-578.01416	1005.0142	95.694885	-561.61694	1104.1506	94.024612
250	1.24	-529.66223	105.71845	-758.14587	-518.53302	119.60403	-702.7196	-385.12317	528.45404	-852.29877	-365.40408	511.45602	-756.16467	-501.85507	940.97528	-891.07159	-420.67828	1166.9731	-636.78442	-296.15701	979.08911	-230.59755	-297.71191	1064.6404	-249.89116	-532.49908	1018.4471	127.34296	-514.966	1116.2013	123.39668
251	1.245	-530.32098	106.32437	-754.01306	-518.16058	119.2291	-699.38696	-385.95639	529.16553	-849.2627	-367.61908	511.83777	-752.24084	-502.20752	941.1059	-889.05634	-420.75397	1168.8469	-636.69305	-300.64481	983.52667	-232.1008	-299.74213	1067.9305	-251.09047	-484.10663	1029.9906	153.77606	-465.16983	1126.7113	146.64517
252	1.25	-530.81763	106.87833	-749.83167	-517.98749	120.13947	-694.66016	-388.74133	528.30884	-845.39667	-369.45248	512.25903	-748.49731	-501.94949	941.41785	-887.15942	-421.3855	1171.2391	-636.43256	-307.18484	988.16669	-231.52448	-303.26978	1071.4449	-252.38863	-431.9754	1039.9133	173.30574	-413.8577	1135.4304	163.22304
253	1.255	-531.23639	107.60424	-745.95422	-517.62518	120.57154	-690.99951	-390.7002	528.46844	-841.65527	-370.86557	512.73633	-744.98187	-501.02954	941.83228	-884.9931	-422.29608	1173.8672	-635.60345	-313.4505	992.87897	-229.72768	-308.77795	1077.1185	-252.08029	-378.77997	1045.9374	185.06947	-362.62442	1141.3066	171.90483
254	1.26	-531.53802	108.47752	-742.30902	-517.23785	121.05249	-687.67188	-392.30997	528.92365	-838.25751	-371.87854	513.3573	-741.70868	-499.62064	942.42987	-882.20758	-423.6369	1176.7025	-634.16284	-318.12039	997.05865	-227.43883	-313.98029	1084.3472	-249.6154	-334.62198	1054.1637	184.58821	-322.60464	1146.7267	168.98854
255	1.265	-531.75586	109.38879	-739.09955	-516.78192	121.64637	-684.742	-393.92758	529.35864	-834.67078	-372.71933	514.03973	-738.31549	-497.48972	943.30475	-879.52386	-425.41757	1179.595	-632.00409	-317.89536	1000.2738	-225.00912	-313.10025	1090.8809	-247.74344	-322.93915	1063.1361	184.957	-299.82336	1154.1235	163.78012
256	1.27	-531.82483	110.19548	-736.34387	-516.43628	122.0663	-682.10205	-395.49033	529.91943	-830.63129	-373.29501	514.9104	-734.89142	-495.21777	944.24493	-876.67969	-427.66479	1182.3358	-629.53729	-306.34842	1004.9839	-224.82939	-301.62628	1095.1398	-247.42665	-328.96277	1070.3856	182.4498	-294.32071	1160.5922	163.50754
